<svg width="303" height="53" viewBox="0 0 303 53" fill="none" xmlns="http://www.w3.org/2000/svg">
<path d="M72.6311 31.655C69.8012 31.6573 67.088 32.7825 65.087 34.7834C63.086 36.7844 61.9608 39.4977 61.9586 42.3275C61.9552 43.8203 62.268 45.2969 62.8765 46.66C61.039 47.83 58.9036 48.4465 56.7253 48.4359C56.068 48.4372 55.4114 48.3914 54.7606 48.2986C54.4959 48.2614 54.2264 48.2768 53.9676 48.3437C53.7087 48.4107 53.4656 48.528 53.2521 48.6889C53.0386 48.8499 52.8589 49.0513 52.7232 49.2816C52.5876 49.512 52.4986 49.7669 52.4614 50.0316C52.4243 50.2964 52.4396 50.5659 52.5066 50.8247C52.5735 51.0835 52.6908 51.3266 52.8517 51.5401C53.0127 51.7536 53.2141 51.9334 53.4444 52.069C53.6748 52.2047 53.9297 52.2937 54.1944 52.3308C55.0475 52.446 55.9074 52.5033 56.7682 52.5024C59.7569 52.4994 62.6805 51.6292 65.1843 49.9973C66.4406 51.2128 67.9762 52.1012 69.6561 52.5843C71.3361 53.0674 73.109 53.1305 74.819 52.768C76.5291 52.4054 78.1239 51.6284 79.4633 50.5052C80.8028 49.382 81.8458 47.947 82.5007 46.3263C83.1557 44.7056 83.4025 42.9488 83.2195 41.2103C83.0366 39.4719 82.4294 37.805 81.4513 36.3562C80.4733 34.9073 79.1543 33.7209 77.6104 32.9012C76.0664 32.0815 74.3448 31.6536 72.5967 31.655H72.6311ZM72.6311 48.9335C71.3245 48.9335 70.0473 48.546 68.961 47.8202C67.8746 47.0943 67.0279 46.0626 66.5279 44.8555C66.028 43.6484 65.8971 42.3202 66.152 41.0388C66.4069 39.7573 67.0361 38.5803 67.9599 37.6564C68.8838 36.7325 70.0609 36.1034 71.3423 35.8485C72.6237 35.5936 73.952 35.7244 75.1591 36.2244C76.3661 36.7244 77.3978 37.5711 78.1237 38.6574C78.8496 39.7438 79.237 41.021 79.237 42.3275C79.2325 44.0781 78.5351 45.7558 77.2972 46.9936C76.0593 48.2315 74.3817 48.929 72.6311 48.9335Z" fill="#20A869"/>
<path d="M53.8599 22.501C52.0982 20.8274 49.7695 19.8807 47.3397 19.8501C46.1046 19.8718 44.888 20.1534 43.769 20.6767C42.65 21.2 41.6538 21.9531 40.8453 22.8871C38.2716 25.7354 37.7482 29.6132 37.7482 32.3242C37.734 35.2151 38.3182 38.0777 39.4641 40.7318C39.6791 41.2267 40.0819 41.6159 40.5839 41.8138C41.0859 42.0117 41.6459 42.002 42.1408 41.787C42.6357 41.572 43.0249 41.1692 43.2228 40.6672C43.4206 40.1652 43.411 39.6052 43.196 39.1103C42.266 36.9692 41.7898 34.6586 41.7976 32.3242C41.7976 29.3987 42.5097 27.0652 43.8566 25.5724C44.2754 25.0608 44.7977 24.6434 45.3891 24.3477C45.9805 24.052 46.6277 23.8847 47.2883 23.8566C49.4931 23.8566 53.2165 25.5123 53.2165 31.7322C53.2517 33.9591 52.7885 36.1657 51.8607 38.1905C50.933 40.2152 49.5642 42.0069 47.8545 43.4342C43.9767 46.7029 38.4174 48.4359 31.7771 48.4359C30.0631 48.4924 28.3547 48.21 26.75 47.6049C25.1453 46.9998 23.6759 46.084 22.4258 44.9098C21.3151 43.8061 20.4387 42.4895 19.849 41.0389C19.2593 39.5883 18.9686 38.0336 18.9942 36.4679C18.9905 35.3366 19.1143 34.2085 19.3631 33.1049C24.4505 32.3499 29.9669 29.21 34.4109 24.5257C37.1896 21.6616 38.9913 17.992 39.5584 14.042C40.0475 10.1041 38.9407 6.63816 36.4442 4.28747C35.6444 3.57934 34.6954 3.06046 33.6677 2.76936C32.6399 2.47825 31.5597 2.4224 30.5074 2.60595C28.1646 2.95736 25.9239 3.80564 23.9358 5.09391C23.6703 5.21376 23.4335 5.38902 23.2414 5.60792C23.0493 5.82683 22.9062 6.08431 22.8217 6.36307C22.7373 6.64184 22.7135 6.93545 22.7519 7.22417C22.7903 7.5129 22.8901 7.79007 23.0445 8.03706C23.1988 8.28406 23.4043 8.49517 23.647 8.65622C23.8897 8.81727 24.164 8.92453 24.4516 8.9708C24.7391 9.01707 25.0333 9.00128 25.3143 8.92449C25.5952 8.8477 25.8565 8.71168 26.0806 8.52558C29.272 6.55237 32.3863 6.0033 33.6474 7.18723C35.1745 8.61995 35.8351 10.8591 35.5091 13.4758C35.0422 16.5697 33.61 19.4371 31.4168 21.6689C29.3885 23.8464 27.018 25.6779 24.399 27.0909C22.428 28.2148 20.2519 28.9324 17.999 29.2014C15.8399 28.4834 13.8451 27.3431 12.1308 25.8469C9.86823 23.9123 7.93806 21.6199 6.41711 19.0608C4.72383 16.4116 3.91295 13.2942 4.10073 10.1556C4.34095 7.53039 5.45624 5.47997 7.25787 4.399C8.73348 3.54108 11.659 4.69927 14.37 7.30733C14.5627 7.49267 14.7899 7.63824 15.0388 7.73573C15.2877 7.83323 15.5534 7.88075 15.8207 7.87557C16.088 7.87039 16.3516 7.81262 16.5966 7.70555C16.8415 7.59849 17.063 7.44422 17.2483 7.25157C17.4336 7.05892 17.5792 6.83164 17.6767 6.58273C17.7742 6.33382 17.8217 6.06814 17.8165 5.80087C17.8114 5.53359 17.7536 5.26995 17.6465 5.025C17.5395 4.78005 17.3852 4.55859 17.1925 4.37326C15.523 2.69248 13.5134 1.38791 11.2987 0.546949C10.3113 0.13476 9.24338 -0.0484913 8.17508 0.0109416C7.10677 0.0703745 6.06579 0.370948 5.13023 0.890115C2.21331 2.68316 0.40311 5.83172 0.0427845 9.78671C-0.224913 13.7716 0.76861 17.7397 2.88249 21.1284C6.11684 26.4904 10.6466 30.6255 15.288 32.5301C15.0197 33.8255 14.8846 35.145 14.8847 36.4679C14.8635 38.5802 15.2689 40.6751 16.0768 42.6269C16.8846 44.5787 18.0783 46.3474 19.5861 47.8268C22.8794 50.9238 27.2575 52.603 31.7771 52.5024C39.3954 52.5024 45.8555 50.4434 50.4797 46.5485C52.6421 44.7499 54.3791 42.4946 55.5658 39.9446C56.7526 37.3946 57.3595 34.6134 57.3431 31.8009C57.3345 26.8421 55.4471 24.0539 53.8599 22.501Z" fill="#20A869"/>
<path d="M72.6314 45.3301C74.2897 45.3301 75.6341 43.9858 75.6341 42.3274C75.6341 40.6691 74.2897 39.3247 72.6314 39.3247C70.973 39.3247 69.6287 40.6691 69.6287 42.3274C69.6287 43.9858 70.973 45.3301 72.6314 45.3301Z" fill="#20A869"/>
<path d="M105.335 52.1937H111.22V25.6754H121.292V20.6223H95.3142V25.7012H105.335V52.1937Z" fill="#3C3F3D"/>
<path d="M141.874 46.2139C139.384 47.5788 136.579 48.2624 133.741 48.1957C129.151 48.1957 126.594 46.171 126.019 42.1302H143.864C143.958 41.52 144.001 40.903 143.993 40.2857C143.993 31.7065 138.845 27.7944 132.265 27.7944C125.204 27.7944 120.04 32.7789 120.04 40.4659C120.04 48.1528 124.578 52.8285 132.848 52.8285C136.351 52.9188 139.813 52.0622 142.869 50.3491L141.874 46.2139ZM132.162 32.3328C135.671 32.3328 137.653 34.4004 138.056 38.5356H126.045C126.5 34.4433 128.67 32.3328 132.162 32.3328Z" fill="#3C3F3D"/>
<path d="M149.448 52.1937H155.205V20.6223H149.448V52.1937Z" fill="#3C3F3D"/>
<path d="M182.573 46.2139C180.083 47.5788 177.278 48.2624 174.44 48.1957C169.85 48.1957 167.293 46.171 166.718 42.1302H184.555C184.656 41.5208 184.702 40.9034 184.692 40.2857C184.692 31.7065 179.544 27.7944 172.964 27.7944C165.903 27.7944 160.739 32.7789 160.739 40.4659C160.739 48.1528 165.277 52.8285 173.547 52.8285C177.053 52.9204 180.518 52.0637 183.577 50.3491L182.573 46.2139ZM172.861 32.3328C176.37 32.3328 178.343 34.4004 178.746 38.5356H166.736C167.199 34.4433 169.361 32.3328 172.861 32.3328Z" fill="#3C3F3D"/>
<path d="M190.149 52.1937H195.906V39.4965C197.699 34.9581 199.904 32.7104 203.052 32.7104C205.746 32.7104 207.187 34.5549 207.187 38.5528V52.1937H212.892V39.4965C214.694 34.9581 216.847 32.7104 219.945 32.7104C222.647 32.7104 224.234 34.5549 224.234 38.5528V52.1937H229.905V38.2182C229.905 30.4969 226.224 27.8374 221.506 27.8374C217.414 27.8374 214.583 29.8106 212.378 33.7227C211.211 29.4331 208.294 27.8374 204.656 27.8374C200.83 27.8374 197.999 29.5532 195.846 32.8734V28.4208H190.089L190.149 52.1937Z" fill="#3C3F3D"/>
<path d="M257.067 46.2139C254.577 47.5788 251.772 48.2624 248.934 48.1957C244.344 48.1957 241.787 46.171 241.212 42.1302H259.074C259.176 41.5208 259.222 40.9034 259.212 40.2857C259.212 31.7065 254.064 27.7944 247.484 27.7944C240.423 27.7944 235.259 32.7789 235.259 40.4659C235.259 48.1528 239.797 52.8285 248.067 52.8285C251.57 52.9188 255.032 52.0622 258.088 50.3491L257.067 46.2139ZM247.355 32.3328C250.864 32.3328 252.837 34.4004 253.241 38.5356H241.23C241.693 34.4433 243.855 32.3328 247.355 32.3328Z" fill="#3C3F3D"/>
<path d="M263.295 40.3544C263.295 48.4875 268.82 52.7599 274.937 52.7599C276.664 52.7858 278.366 52.3491 279.867 51.4953C281.368 50.6414 282.613 49.4015 283.473 47.9041V52.1937H289.101V20.6223H283.396V32.0155C282.451 30.6636 281.183 29.5693 279.707 28.8322C278.231 28.095 276.594 27.7383 274.946 27.7945C268.64 27.7945 263.295 32.1956 263.295 40.3544ZM269.301 40.2686C269.301 35.2326 272.132 32.6675 275.769 32.6675C279.407 32.6675 282.289 35.4986 283.491 40.0884V40.3115C282.418 44.7641 279.673 47.9041 275.855 47.9041C272.037 47.9041 269.318 45.0987 269.318 40.2429L269.301 40.2686Z" fill="#3C3F3D"/>
<path d="M295.285 21.2743C295.256 21.9885 295.442 22.695 295.818 23.3028C296.194 23.9105 296.744 24.3917 297.396 24.6843C298.048 24.9768 298.773 25.0673 299.477 24.9441C300.181 24.8209 300.832 24.4896 301.346 23.9929C301.86 23.4963 302.213 22.8571 302.361 22.1577C302.508 21.4583 302.442 20.7308 302.173 20.069C301.903 19.4072 301.441 18.8414 300.846 18.4446C300.252 18.0478 299.552 17.8381 298.837 17.8427C298.377 17.8265 297.917 17.9034 297.487 18.0686C297.057 18.2338 296.664 18.484 296.333 18.8043C296.001 19.1246 295.738 19.5084 295.558 19.9328C295.378 20.3571 295.285 20.8134 295.285 21.2743ZM295.963 52.1594H301.72V28.4208H295.963V52.1594Z" fill="#3C3F3D"/>
</svg>
